0
SECTION
2
HEADER
9
$INSUNITS
70
4
0
ENDSEC
0
SECTION
2
TABLES
0
TABLE
2
LTYPE
0
LTYPE
72
65
70
64
2
CONTINUOUS
3
______
73
0
40
0
0
ENDTAB
0
TABLE
2
LAYER
0
ENDTAB
0
ENDSEC
0
SECTION
2
ENTITIES
0
ARC
8
0
10
3.025
20
-16.025
40
0.5
50
180
51
270
0
ARC
8
0
10
16.025
20
-16.025
40
0.5
50
270
51
0
0
ARC
8
0
10
16.025
20
-3.025
40
0.5
50
0
51
90
0
ARC
8
0
10
3.025
20
-3.025
40
0.5
50
90
51
180
0
LINE
8
0
10
3.025
20
-16.525
11
16.025
21
-16.525
0
LINE
8
0
10
16.025
20
-2.525
11
3.025
21
-2.525
0
LINE
8
0
10
16.525
20
-16.025
11
16.525
21
-3.025
0
LINE
8
0
10
2.525
20
-3.025
11
2.525
21
-16.025
0
ARC
8
0
10
22.075
20
-16.025
40
0.5
50
180
51
270
0
ARC
8
0
10
35.075
20
-16.025
40
0.5
50
270
51
0
0
ARC
8
0
10
35.075
20
-3.025
40
0.5
50
0
51
90
0
ARC
8
0
10
22.075
20
-3.025
40
0.5
50
90
51
180
0
LINE
8
0
10
22.075
20
-16.525
11
35.075
21
-16.525
0
LINE
8
0
10
35.075
20
-2.525
11
22.075
21
-2.525
0
LINE
8
0
10
35.575
20
-16.025
11
35.575
21
-3.025
0
LINE
8
0
10
21.575
20
-3.025
11
21.575
21
-16.025
0
ARC
8
0
10
41.125
20
-16.025
40
0.5
50
180
51
270
0
ARC
8
0
10
54.125
20
-16.025
40
0.5
50
270
51
0
0
ARC
8
0
10
54.125
20
-3.025
40
0.5
50
0
51
90
0
ARC
8
0
10
41.125
20
-3.025
40
0.5
50
90
51
180
0
LINE
8
0
10
41.125
20
-16.525
11
54.125
21
-16.525
0
LINE
8
0
10
54.125
20
-2.525
11
41.125
21
-2.525
0
LINE
8
0
10
54.625
20
-16.025
11
54.625
21
-3.025
0
LINE
8
0
10
40.625
20
-3.025
11
40.625
21
-16.025
0
ARC
8
0
10
60.175
20
-16.025
40
0.5
50
180
51
270
0
ARC
8
0
10
73.175
20
-16.025
40
0.5
50
270
51
0
0
ARC
8
0
10
73.175
20
-3.025
40
0.5
50
0
51
90
0
ARC
8
0
10
60.175
20
-3.025
40
0.5
50
90
51
180
0
LINE
8
0
10
60.175
20
-16.525
11
73.175
21
-16.525
0
LINE
8
0
10
73.175
20
-2.525
11
60.175
21
-2.525
0
LINE
8
0
10
73.675
20
-16.025
11
73.675
21
-3.025
0
LINE
8
0
10
59.675
20
-3.025
11
59.675
21
-16.025
0
ARC
8
0
10
79.225
20
-16.025
40
0.5
50
180
51
270
0
ARC
8
0
10
92.225
20
-16.025
40
0.5
50
270
51
0
0
ARC
8
0
10
92.225
20
-3.025
40
0.5
50
0
51
90
0
ARC
8
0
10
79.225
20
-3.025
40
0.5
50
90
51
180
0
LINE
8
0
10
79.225
20
-16.525
11
92.225
21
-16.525
0
LINE
8
0
10
92.225
20
-2.525
11
79.225
21
-2.525
0
LINE
8
0
10
92.725
20
-16.025
11
92.725
21
-3.025
0
LINE
8
0
10
78.725
20
-3.025
11
78.725
21
-16.025
0
ARC
8
0
10
98.275
20
-16.025
40
0.5
50
180
51
270
0
ARC
8
0
10
111.275
20
-16.025
40
0.5
50
270
51
0
0
ARC
8
0
10
111.275
20
-3.025
40
0.5
50
0
51
90
0
ARC
8
0
10
98.275
20
-3.025
40
0.5
50
90
51
180
0
LINE
8
0
10
98.275
20
-16.525
11
111.275
21
-16.525
0
LINE
8
0
10
111.275
20
-2.525
11
98.275
21
-2.525
0
LINE
8
0
10
111.775
20
-16.025
11
111.775
21
-3.025
0
LINE
8
0
10
97.775
20
-3.025
11
97.775
21
-16.025
0
ARC
8
0
10
117.325
20
-16.025
40
0.5
50
180
51
270
0
ARC
8
0
10
130.325
20
-16.025
40
0.5
50
270
51
0
0
ARC
8
0
10
130.325
20
-3.025
40
0.5
50
0
51
90
0
ARC
8
0
10
117.325
20
-3.025
40
0.5
50
90
51
180
0
LINE
8
0
10
117.325
20
-16.525
11
130.325
21
-16.525
0
LINE
8
0
10
130.325
20
-2.525
11
117.325
21
-2.525
0
LINE
8
0
10
130.825
20
-16.025
11
130.825
21
-3.025
0
LINE
8
0
10
116.825
20
-3.025
11
116.825
21
-16.025
0
ARC
8
0
10
136.375
20
-16.025
40
0.5
50
180
51
270
0
ARC
8
0
10
149.375
20
-16.025
40
0.5
50
270
51
0
0
ARC
8
0
10
149.375
20
-3.025
40
0.5
50
0
51
90
0
ARC
8
0
10
136.375
20
-3.025
40
0.5
50
90
51
180
0
LINE
8
0
10
136.375
20
-16.525
11
149.375
21
-16.525
0
LINE
8
0
10
149.375
20
-2.525
11
136.375
21
-2.525
0
LINE
8
0
10
149.875
20
-16.025
11
149.875
21
-3.025
0
LINE
8
0
10
135.875
20
-3.025
11
135.875
21
-16.025
0
ARC
8
0
10
155.425
20
-16.025
40
0.5
50
180
51
270
0
ARC
8
0
10
168.425
20
-16.025
40
0.5
50
270
51
0
0
ARC
8
0
10
168.425
20
-3.025
40
0.5
50
0
51
90
0
ARC
8
0
10
155.425
20
-3.025
40
0.5
50
90
51
180
0
LINE
8
0
10
155.425
20
-16.525
11
168.425
21
-16.525
0
LINE
8
0
10
168.425
20
-2.525
11
155.425
21
-2.525
0
LINE
8
0
10
168.925
20
-16.025
11
168.925
21
-3.025
0
LINE
8
0
10
154.925
20
-3.025
11
154.925
21
-16.025
0
ARC
8
0
10
174.475
20
-16.025
40
0.5
50
180
51
270
0
ARC
8
0
10
187.475
20
-16.025
40
0.5
50
270
51
0
0
ARC
8
0
10
187.475
20
-3.025
40
0.5
50
0
51
90
0
ARC
8
0
10
174.475
20
-3.025
40
0.5
50
90
51
180
0
LINE
8
0
10
174.475
20
-16.525
11
187.475
21
-16.525
0
LINE
8
0
10
187.475
20
-2.525
11
174.475
21
-2.525
0
LINE
8
0
10
187.975
20
-16.025
11
187.975
21
-3.025
0
LINE
8
0
10
173.975
20
-3.025
11
173.975
21
-16.025
0
ARC
8
0
10
193.525
20
-16.025
40
0.5
50
180
51
270
0
ARC
8
0
10
206.525
20
-16.025
40
0.5
50
270
51
0
0
ARC
8
0
10
206.525
20
-3.025
40
0.5
50
0
51
90
0
ARC
8
0
10
193.525
20
-3.025
40
0.5
50
90
51
180
0
LINE
8
0
10
193.525
20
-16.525
11
206.525
21
-16.525
0
LINE
8
0
10
206.525
20
-2.525
11
193.525
21
-2.525
0
LINE
8
0
10
207.025
20
-16.025
11
207.025
21
-3.025
0
LINE
8
0
10
193.025
20
-3.025
11
193.025
21
-16.025
0
ARC
8
0
10
212.575
20
-16.025
40
0.5
50
180
51
270
0
ARC
8
0
10
225.575
20
-16.025
40
0.5
50
270
51
0
0
ARC
8
0
10
225.575
20
-3.025
40
0.5
50
0
51
90
0
ARC
8
0
10
212.575
20
-3.025
40
0.5
50
90
51
180
0
LINE
8
0
10
212.575
20
-16.525
11
225.575
21
-16.525
0
LINE
8
0
10
225.575
20
-2.525
11
212.575
21
-2.525
0
LINE
8
0
10
226.075
20
-16.025
11
226.075
21
-3.025
0
LINE
8
0
10
212.075
20
-3.025
11
212.075
21
-16.025
0
ARC
8
0
10
3.025
20
-35.075
40
0.5
50
180
51
270
0
ARC
8
0
10
16.025
20
-35.075
40
0.5
50
270
51
0
0
ARC
8
0
10
16.025
20
-22.075
40
0.5
50
0
51
90
0
ARC
8
0
10
3.025
20
-22.075
40
0.5
50
90
51
180
0
LINE
8
0
10
3.025
20
-35.575
11
16.025
21
-35.575
0
LINE
8
0
10
16.025
20
-21.575
11
3.025
21
-21.575
0
LINE
8
0
10
16.525
20
-35.075
11
16.525
21
-22.075
0
LINE
8
0
10
2.525
20
-22.075
11
2.525
21
-35.075
0
ARC
8
0
10
22.075
20
-35.075
40
0.5
50
180
51
270
0
ARC
8
0
10
35.075
20
-35.075
40
0.5
50
270
51
0
0
ARC
8
0
10
35.075
20
-22.075
40
0.5
50
0
51
90
0
ARC
8
0
10
22.075
20
-22.075
40
0.5
50
90
51
180
0
LINE
8
0
10
22.075
20
-35.575
11
35.075
21
-35.575
0
LINE
8
0
10
35.075
20
-21.575
11
22.075
21
-21.575
0
LINE
8
0
10
35.575
20
-35.075
11
35.575
21
-22.075
0
LINE
8
0
10
21.575
20
-22.075
11
21.575
21
-35.075
0
ARC
8
0
10
41.125
20
-35.075
40
0.5
50
180
51
270
0
ARC
8
0
10
54.125
20
-35.075
40
0.5
50
270
51
0
0
ARC
8
0
10
54.125
20
-22.075
40
0.5
50
0
51
90
0
ARC
8
0
10
41.125
20
-22.075
40
0.5
50
90
51
180
0
LINE
8
0
10
41.125
20
-35.575
11
54.125
21
-35.575
0
LINE
8
0
10
54.125
20
-21.575
11
41.125
21
-21.575
0
LINE
8
0
10
54.625
20
-35.075
11
54.625
21
-22.075
0
LINE
8
0
10
40.625
20
-22.075
11
40.625
21
-35.075
0
ARC
8
0
10
60.175
20
-35.075
40
0.5
50
180
51
270
0
ARC
8
0
10
73.175
20
-35.075
40
0.5
50
270
51
0
0
ARC
8
0
10
73.175
20
-22.075
40
0.5
50
0
51
90
0
ARC
8
0
10
60.175
20
-22.075
40
0.5
50
90
51
180
0
LINE
8
0
10
60.175
20
-35.575
11
73.175
21
-35.575
0
LINE
8
0
10
73.175
20
-21.575
11
60.175
21
-21.575
0
LINE
8
0
10
73.675
20
-35.075
11
73.675
21
-22.075
0
LINE
8
0
10
59.675
20
-22.075
11
59.675
21
-35.075
0
ARC
8
0
10
79.225
20
-35.075
40
0.5
50
180
51
270
0
ARC
8
0
10
92.225
20
-35.075
40
0.5
50
270
51
0
0
ARC
8
0
10
92.225
20
-22.075
40
0.5
50
0
51
90
0
ARC
8
0
10
79.225
20
-22.075
40
0.5
50
90
51
180
0
LINE
8
0
10
79.225
20
-35.575
11
92.225
21
-35.575
0
LINE
8
0
10
92.225
20
-21.575
11
79.225
21
-21.575
0
LINE
8
0
10
92.725
20
-35.075
11
92.725
21
-22.075
0
LINE
8
0
10
78.725
20
-22.075
11
78.725
21
-35.075
0
ARC
8
0
10
98.275
20
-35.075
40
0.5
50
180
51
270
0
ARC
8
0
10
111.275
20
-35.075
40
0.5
50
270
51
0
0
ARC
8
0
10
111.275
20
-22.075
40
0.5
50
0
51
90
0
ARC
8
0
10
98.275
20
-22.075
40
0.5
50
90
51
180
0
LINE
8
0
10
98.275
20
-35.575
11
111.275
21
-35.575
0
LINE
8
0
10
111.275
20
-21.575
11
98.275
21
-21.575
0
LINE
8
0
10
111.775
20
-35.075
11
111.775
21
-22.075
0
LINE
8
0
10
97.775
20
-22.075
11
97.775
21
-35.075
0
ARC
8
0
10
117.325
20
-35.075
40
0.5
50
180
51
270
0
ARC
8
0
10
130.325
20
-35.075
40
0.5
50
270
51
0
0
ARC
8
0
10
130.325
20
-22.075
40
0.5
50
0
51
90
0
ARC
8
0
10
117.325
20
-22.075
40
0.5
50
90
51
180
0
LINE
8
0
10
117.325
20
-35.575
11
130.325
21
-35.575
0
LINE
8
0
10
130.325
20
-21.575
11
117.325
21
-21.575
0
LINE
8
0
10
130.825
20
-35.075
11
130.825
21
-22.075
0
LINE
8
0
10
116.825
20
-22.075
11
116.825
21
-35.075
0
ARC
8
0
10
136.375
20
-35.075
40
0.5
50
180
51
270
0
ARC
8
0
10
149.375
20
-35.075
40
0.5
50
270
51
0
0
ARC
8
0
10
149.375
20
-22.075
40
0.5
50
0
51
90
0
ARC
8
0
10
136.375
20
-22.075
40
0.5
50
90
51
180
0
LINE
8
0
10
136.375
20
-35.575
11
149.375
21
-35.575
0
LINE
8
0
10
149.375
20
-21.575
11
136.375
21
-21.575
0
LINE
8
0
10
149.875
20
-35.075
11
149.875
21
-22.075
0
LINE
8
0
10
135.875
20
-22.075
11
135.875
21
-35.075
0
ARC
8
0
10
155.425
20
-35.075
40
0.5
50
180
51
270
0
ARC
8
0
10
168.425
20
-35.075
40
0.5
50
270
51
0
0
ARC
8
0
10
168.425
20
-22.075
40
0.5
50
0
51
90
0
ARC
8
0
10
155.425
20
-22.075
40
0.5
50
90
51
180
0
LINE
8
0
10
155.425
20
-35.575
11
168.425
21
-35.575
0
LINE
8
0
10
168.425
20
-21.575
11
155.425
21
-21.575
0
LINE
8
0
10
168.925
20
-35.075
11
168.925
21
-22.075
0
LINE
8
0
10
154.925
20
-22.075
11
154.925
21
-35.075
0
ARC
8
0
10
174.475
20
-35.075
40
0.5
50
180
51
270
0
ARC
8
0
10
187.475
20
-35.075
40
0.5
50
270
51
0
0
ARC
8
0
10
187.475
20
-22.075
40
0.5
50
0
51
90
0
ARC
8
0
10
174.475
20
-22.075
40
0.5
50
90
51
180
0
LINE
8
0
10
174.475
20
-35.575
11
187.475
21
-35.575
0
LINE
8
0
10
187.475
20
-21.575
11
174.475
21
-21.575
0
LINE
8
0
10
187.975
20
-35.075
11
187.975
21
-22.075
0
LINE
8
0
10
173.975
20
-22.075
11
173.975
21
-35.075
0
ARC
8
0
10
193.525
20
-35.075
40
0.5
50
180
51
270
0
ARC
8
0
10
206.525
20
-35.075
40
0.5
50
270
51
0
0
ARC
8
0
10
206.525
20
-22.075
40
0.5
50
0
51
90
0
ARC
8
0
10
193.525
20
-22.075
40
0.5
50
90
51
180
0
LINE
8
0
10
193.525
20
-35.575
11
206.525
21
-35.575
0
LINE
8
0
10
206.525
20
-21.575
11
193.525
21
-21.575
0
LINE
8
0
10
207.025
20
-35.075
11
207.025
21
-22.075
0
LINE
8
0
10
193.025
20
-22.075
11
193.025
21
-35.075
0
ARC
8
0
10
212.575
20
-35.075
40
0.5
50
180
51
270
0
ARC
8
0
10
225.575
20
-35.075
40
0.5
50
270
51
0
0
ARC
8
0
10
225.575
20
-22.075
40
0.5
50
0
51
90
0
ARC
8
0
10
212.575
20
-22.075
40
0.5
50
90
51
180
0
LINE
8
0
10
212.575
20
-35.575
11
225.575
21
-35.575
0
LINE
8
0
10
225.575
20
-21.575
11
212.575
21
-21.575
0
LINE
8
0
10
226.075
20
-35.075
11
226.075
21
-22.075
0
LINE
8
0
10
212.075
20
-22.075
11
212.075
21
-35.075
0
ARC
8
0
10
3.025
20
-54.125
40
0.5
50
180
51
270
0
ARC
8
0
10
16.025
20
-54.125
40
0.5
50
270
51
0
0
ARC
8
0
10
16.025
20
-41.125
40
0.5
50
0
51
90
0
ARC
8
0
10
3.025
20
-41.125
40
0.5
50
90
51
180
0
LINE
8
0
10
3.025
20
-54.625
11
16.025
21
-54.625
0
LINE
8
0
10
16.025
20
-40.625
11
3.025
21
-40.625
0
LINE
8
0
10
16.525
20
-54.125
11
16.525
21
-41.125
0
LINE
8
0
10
2.525
20
-41.125
11
2.525
21
-54.125
0
ARC
8
0
10
22.075
20
-54.125
40
0.5
50
180
51
270
0
ARC
8
0
10
35.075
20
-54.125
40
0.5
50
270
51
0
0
ARC
8
0
10
35.075
20
-41.125
40
0.5
50
0
51
90
0
ARC
8
0
10
22.075
20
-41.125
40
0.5
50
90
51
180
0
LINE
8
0
10
22.075
20
-54.625
11
35.075
21
-54.625
0
LINE
8
0
10
35.075
20
-40.625
11
22.075
21
-40.625
0
LINE
8
0
10
35.575
20
-54.125
11
35.575
21
-41.125
0
LINE
8
0
10
21.575
20
-41.125
11
21.575
21
-54.125
0
ARC
8
0
10
41.125
20
-54.125
40
0.5
50
180
51
270
0
ARC
8
0
10
54.125
20
-54.125
40
0.5
50
270
51
0
0
ARC
8
0
10
54.125
20
-41.125
40
0.5
50
0
51
90
0
ARC
8
0
10
41.125
20
-41.125
40
0.5
50
90
51
180
0
LINE
8
0
10
41.125
20
-54.625
11
54.125
21
-54.625
0
LINE
8
0
10
54.125
20
-40.625
11
41.125
21
-40.625
0
LINE
8
0
10
54.625
20
-54.125
11
54.625
21
-41.125
0
LINE
8
0
10
40.625
20
-41.125
11
40.625
21
-54.125
0
ARC
8
0
10
60.175
20
-54.125
40
0.5
50
180
51
270
0
ARC
8
0
10
73.175
20
-54.125
40
0.5
50
270
51
0
0
ARC
8
0
10
73.175
20
-41.125
40
0.5
50
0
51
90
0
ARC
8
0
10
60.175
20
-41.125
40
0.5
50
90
51
180
0
LINE
8
0
10
60.175
20
-54.625
11
73.175
21
-54.625
0
LINE
8
0
10
73.175
20
-40.625
11
60.175
21
-40.625
0
LINE
8
0
10
73.675
20
-54.125
11
73.675
21
-41.125
0
LINE
8
0
10
59.675
20
-41.125
11
59.675
21
-54.125
0
ARC
8
0
10
79.225
20
-54.125
40
0.5
50
180
51
270
0
ARC
8
0
10
92.225
20
-54.125
40
0.5
50
270
51
0
0
ARC
8
0
10
92.225
20
-41.125
40
0.5
50
0
51
90
0
ARC
8
0
10
79.225
20
-41.125
40
0.5
50
90
51
180
0
LINE
8
0
10
79.225
20
-54.625
11
92.225
21
-54.625
0
LINE
8
0
10
92.225
20
-40.625
11
79.225
21
-40.625
0
LINE
8
0
10
92.725
20
-54.125
11
92.725
21
-41.125
0
LINE
8
0
10
78.725
20
-41.125
11
78.725
21
-54.125
0
ARC
8
0
10
98.275
20
-54.125
40
0.5
50
180
51
270
0
ARC
8
0
10
111.275
20
-54.125
40
0.5
50
270
51
0
0
ARC
8
0
10
111.275
20
-41.125
40
0.5
50
0
51
90
0
ARC
8
0
10
98.275
20
-41.125
40
0.5
50
90
51
180
0
LINE
8
0
10
98.275
20
-54.625
11
111.275
21
-54.625
0
LINE
8
0
10
111.275
20
-40.625
11
98.275
21
-40.625
0
LINE
8
0
10
111.775
20
-54.125
11
111.775
21
-41.125
0
LINE
8
0
10
97.775
20
-41.125
11
97.775
21
-54.125
0
ARC
8
0
10
117.325
20
-54.125
40
0.5
50
180
51
270
0
ARC
8
0
10
130.325
20
-54.125
40
0.5
50
270
51
0
0
ARC
8
0
10
130.325
20
-41.125
40
0.5
50
0
51
90
0
ARC
8
0
10
117.325
20
-41.125
40
0.5
50
90
51
180
0
LINE
8
0
10
117.325
20
-54.625
11
130.325
21
-54.625
0
LINE
8
0
10
130.325
20
-40.625
11
117.325
21
-40.625
0
LINE
8
0
10
130.825
20
-54.125
11
130.825
21
-41.125
0
LINE
8
0
10
116.825
20
-41.125
11
116.825
21
-54.125
0
ARC
8
0
10
136.375
20
-54.125
40
0.5
50
180
51
270
0
ARC
8
0
10
149.375
20
-54.125
40
0.5
50
270
51
0
0
ARC
8
0
10
149.375
20
-41.125
40
0.5
50
0
51
90
0
ARC
8
0
10
136.375
20
-41.125
40
0.5
50
90
51
180
0
LINE
8
0
10
136.375
20
-54.625
11
149.375
21
-54.625
0
LINE
8
0
10
149.375
20
-40.625
11
136.375
21
-40.625
0
LINE
8
0
10
149.875
20
-54.125
11
149.875
21
-41.125
0
LINE
8
0
10
135.875
20
-41.125
11
135.875
21
-54.125
0
ARC
8
0
10
155.425
20
-54.125
40
0.5
50
180
51
270
0
ARC
8
0
10
168.425
20
-54.125
40
0.5
50
270
51
0
0
ARC
8
0
10
168.425
20
-41.125
40
0.5
50
0
51
90
0
ARC
8
0
10
155.425
20
-41.125
40
0.5
50
90
51
180
0
LINE
8
0
10
155.425
20
-54.625
11
168.425
21
-54.625
0
LINE
8
0
10
168.425
20
-40.625
11
155.425
21
-40.625
0
LINE
8
0
10
168.925
20
-54.125
11
168.925
21
-41.125
0
LINE
8
0
10
154.925
20
-41.125
11
154.925
21
-54.125
0
ARC
8
0
10
174.475
20
-54.125
40
0.5
50
180
51
270
0
ARC
8
0
10
187.475
20
-54.125
40
0.5
50
270
51
0
0
ARC
8
0
10
187.475
20
-41.125
40
0.5
50
0
51
90
0
ARC
8
0
10
174.475
20
-41.125
40
0.5
50
90
51
180
0
LINE
8
0
10
174.475
20
-54.625
11
187.475
21
-54.625
0
LINE
8
0
10
187.475
20
-40.625
11
174.475
21
-40.625
0
LINE
8
0
10
187.975
20
-54.125
11
187.975
21
-41.125
0
LINE
8
0
10
173.975
20
-41.125
11
173.975
21
-54.125
0
ARC
8
0
10
193.525
20
-54.125
40
0.5
50
180
51
270
0
ARC
8
0
10
206.525
20
-54.125
40
0.5
50
270
51
0
0
ARC
8
0
10
206.525
20
-41.125
40
0.5
50
0
51
90
0
ARC
8
0
10
193.525
20
-41.125
40
0.5
50
90
51
180
0
LINE
8
0
10
193.525
20
-54.625
11
206.525
21
-54.625
0
LINE
8
0
10
206.525
20
-40.625
11
193.525
21
-40.625
0
LINE
8
0
10
207.025
20
-54.125
11
207.025
21
-41.125
0
LINE
8
0
10
193.025
20
-41.125
11
193.025
21
-54.125
0
ARC
8
0
10
212.575
20
-54.125
40
0.5
50
180
51
270
0
ARC
8
0
10
225.575
20
-54.125
40
0.5
50
270
51
0
0
ARC
8
0
10
225.575
20
-41.125
40
0.5
50
0
51
90
0
ARC
8
0
10
212.575
20
-41.125
40
0.5
50
90
51
180
0
LINE
8
0
10
212.575
20
-54.625
11
225.575
21
-54.625
0
LINE
8
0
10
225.575
20
-40.625
11
212.575
21
-40.625
0
LINE
8
0
10
226.075
20
-54.125
11
226.075
21
-41.125
0
LINE
8
0
10
212.075
20
-41.125
11
212.075
21
-54.125
0
ARC
8
0
10
3.025
20
-73.175
40
0.5
50
180
51
270
0
ARC
8
0
10
16.025
20
-73.175
40
0.5
50
270
51
0
0
ARC
8
0
10
16.025
20
-60.175
40
0.5
50
0
51
90
0
ARC
8
0
10
3.025
20
-60.175
40
0.5
50
90
51
180
0
LINE
8
0
10
3.025
20
-73.675
11
16.025
21
-73.675
0
LINE
8
0
10
16.025
20
-59.675
11
3.025
21
-59.675
0
LINE
8
0
10
16.525
20
-73.175
11
16.525
21
-60.175
0
LINE
8
0
10
2.525
20
-60.175
11
2.525
21
-73.175
0
ARC
8
0
10
22.075
20
-73.175
40
0.5
50
180
51
270
0
ARC
8
0
10
35.075
20
-73.175
40
0.5
50
270
51
0
0
ARC
8
0
10
35.075
20
-60.175
40
0.5
50
0
51
90
0
ARC
8
0
10
22.075
20
-60.175
40
0.5
50
90
51
180
0
LINE
8
0
10
22.075
20
-73.675
11
35.075
21
-73.675
0
LINE
8
0
10
35.075
20
-59.675
11
22.075
21
-59.675
0
LINE
8
0
10
35.575
20
-73.175
11
35.575
21
-60.175
0
LINE
8
0
10
21.575
20
-60.175
11
21.575
21
-73.175
0
ARC
8
0
10
41.125
20
-73.175
40
0.5
50
180
51
270
0
ARC
8
0
10
54.125
20
-73.175
40
0.5
50
270
51
0
0
ARC
8
0
10
54.125
20
-60.175
40
0.5
50
0
51
90
0
ARC
8
0
10
41.125
20
-60.175
40
0.5
50
90
51
180
0
LINE
8
0
10
41.125
20
-73.675
11
54.125
21
-73.675
0
LINE
8
0
10
54.125
20
-59.675
11
41.125
21
-59.675
0
LINE
8
0
10
54.625
20
-73.175
11
54.625
21
-60.175
0
LINE
8
0
10
40.625
20
-60.175
11
40.625
21
-73.175
0
ARC
8
0
10
60.175
20
-73.175
40
0.5
50
180
51
270
0
ARC
8
0
10
73.175
20
-73.175
40
0.5
50
270
51
0
0
ARC
8
0
10
73.175
20
-60.175
40
0.5
50
0
51
90
0
ARC
8
0
10
60.175
20
-60.175
40
0.5
50
90
51
180
0
LINE
8
0
10
60.175
20
-73.675
11
73.175
21
-73.675
0
LINE
8
0
10
73.175
20
-59.675
11
60.175
21
-59.675
0
LINE
8
0
10
73.675
20
-73.175
11
73.675
21
-60.175
0
LINE
8
0
10
59.675
20
-60.175
11
59.675
21
-73.175
0
ARC
8
0
10
79.225
20
-73.175
40
0.5
50
180
51
270
0
ARC
8
0
10
79.225
20
-60.175
40
0.5
50
90
51
180
0
LINE
8
0
10
79.225
20
-73.675
11
80.312
21
-73.675
0
LINE
8
0
10
88.75
20
-73.675
11
92.225
21
-73.675
0
LINE
8
0
10
80.312
20
-73.675
11
86.312
21
-73.675
0
LINE
8
0
10
86.312
20
-73.675
11
88.75
21
-73.675
0
LINE
8
0
10
92.225
20
-59.675
11
88.75
21
-59.675
0
LINE
8
0
10
88.75
20
-59.675
11
86.812
21
-59.675
0
LINE
8
0
10
79.812
20
-59.675
11
79.225
21
-59.675
0
LINE
8
0
10
78.725
20
-60.175
11
78.725
21
-73.175
0
LINE
8
0
10
92.225
20
-73.675
11
98.275
21
-73.675
0
LINE
8
0
10
98.275
20
-73.675
11
99.362
21
-73.675
0
LINE
8
0
10
99.362
20
-73.675
11
101.75
21
-73.675
0
LINE
8
0
10
98.862
20
-59.675
11
98.275
21
-59.675
0
LINE
8
0
10
98.275
20
-59.675
11
92.225
21
-59.675
0
ARC
8
0
10
110.188
20
-59.175
40
0.5
50
0
51
90
0
LINE
8
0
10
110.188
20
-58.675
11
105.362
21
-58.675
0
LINE
8
0
10
105.362
20
-58.675
11
104.188
21
-58.675
0
LINE
8
0
10
104.188
20
-73.675
11
105.362
21
-73.675
0
LINE
8
0
10
107.8
20
-73.675
11
110.188
21
-73.675
0
LINE
8
0
10
105.362
20
-73.675
11
107.8
21
-73.675
0
LINE
8
0
10
110.688
20
-59.675
11
110.688
21
-59.175
0
ARC
8
0
10
86.312
20
-59.175
40
0.5
50
0
51
90
0
ARC
8
0
10
80.312
20
-59.175
40
0.5
50
90
51
180
0
LINE
8
0
10
86.312
20
-58.675
11
80.312
21
-58.675
0
LINE
8
0
10
79.812
20
-59.175
11
79.812
21
-59.675
0
LINE
8
0
10
86.812
20
-59.675
11
86.812
21
-59.175
0
LINE
8
0
10
110.188
20
-73.675
11
111.275
21
-73.675
0
LINE
8
0
10
111.275
20
-73.675
11
117.325
21
-73.675
0
LINE
8
0
10
117.325
20
-73.675
11
118.412
21
-73.675
0
LINE
8
0
10
118.412
20
-73.675
11
120.8
21
-73.675
0
LINE
8
0
10
117.912
20
-59.675
11
117.325
21
-59.675
0
LINE
8
0
10
117.325
20
-59.675
11
111.275
21
-59.675
0
LINE
8
0
10
111.275
20
-59.675
11
110.688
21
-59.675
0
ARC
8
0
10
129.238
20
-59.175
40
0.5
50
0
51
90
0
LINE
8
0
10
129.238
20
-58.675
11
124.412
21
-58.675
0
LINE
8
0
10
124.412
20
-58.675
11
123.238
21
-58.675
0
LINE
8
0
10
123.238
20
-73.675
11
124.412
21
-73.675
0
LINE
8
0
10
126.85
20
-73.675
11
129.238
21
-73.675
0
LINE
8
0
10
124.412
20
-73.675
11
126.85
21
-73.675
0
LINE
8
0
10
129.738
20
-59.675
11
129.738
21
-59.175
0
ARC
8
0
10
99.362
20
-59.175
40
0.5
50
90
51
180
0
LINE
8
0
10
104.188
20
-58.675
11
99.362
21
-58.675
0
LINE
8
0
10
101.75
20
-73.675
11
104.188
21
-73.675
0
LINE
8
0
10
98.862
20
-59.175
11
98.862
21
-59.675
0
LINE
8
0
10
120.8
20
-73.675
11
123.238
21
-73.675
0
LINE
8
0
10
129.238
20
-73.675
11
130.325
21
-73.675
0
LINE
8
0
10
130.325
20
-59.675
11
129.738
21
-59.675
0
LINE
8
0
10
130.325
20
-73.675
11
136.375
21
-73.675
0
LINE
8
0
10
136.375
20
-73.675
11
139.85
21
-73.675
0
LINE
8
0
10
139.85
20
-59.675
11
136.375
21
-59.675
0
LINE
8
0
10
136.375
20
-59.675
11
130.325
21
-59.675
0
ARC
8
0
10
148.288
20
-59.175
40
0.5
50
0
51
90
0
ARC
8
0
10
142.288
20
-59.175
40
0.5
50
90
51
180
0
LINE
8
0
10
148.288
20
-58.675
11
142.288
21
-58.675
0
LINE
8
0
10
142.288
20
-73.675
11
148.288
21
-73.675
0
LINE
8
0
10
141.788
20
-59.175
11
141.788
21
-59.675
0
LINE
8
0
10
148.788
20
-59.675
11
148.788
21
-59.175
0
ARC
8
0
10
118.412
20
-59.175
40
0.5
50
90
51
180
0
LINE
8
0
10
123.238
20
-58.675
11
118.412
21
-58.675
0
LINE
8
0
10
117.912
20
-59.175
11
117.912
21
-59.675
0
ARC
8
0
10
149.375
20
-73.175
40
0.5
50
270
51
0
0
ARC
8
0
10
149.375
20
-60.175
40
0.5
50
0
51
90
0
LINE
8
0
10
139.85
20
-73.675
11
142.288
21
-73.675
0
LINE
8
0
10
148.288
20
-73.675
11
149.375
21
-73.675
0
LINE
8
0
10
149.375
20
-59.675
11
148.788
21
-59.675
0
LINE
8
0
10
141.788
20
-59.675
11
139.85
21
-59.675
0
LINE
8
0
10
149.875
20
-73.175
11
149.875
21
-60.175
0
ARC
8
0
10
155.425
20
-73.175
40
0.5
50
180
51
270
0
ARC
8
0
10
168.425
20
-73.175
40
0.5
50
270
51
0
0
ARC
8
0
10
168.425
20
-60.175
40
0.5
50
0
51
90
0
ARC
8
0
10
155.425
20
-60.175
40
0.5
50
90
51
180
0
LINE
8
0
10
155.425
20
-73.675
11
168.425
21
-73.675
0
LINE
8
0
10
168.425
20
-59.675
11
155.425
21
-59.675
0
LINE
8
0
10
168.925
20
-73.175
11
168.925
21
-60.175
0
LINE
8
0
10
154.925
20
-60.175
11
154.925
21
-73.175
0
ARC
8
0
10
174.475
20
-73.175
40
0.5
50
180
51
270
0
ARC
8
0
10
187.475
20
-73.175
40
0.5
50
270
51
0
0
ARC
8
0
10
187.475
20
-60.175
40
0.5
50
0
51
90
0
ARC
8
0
10
174.475
20
-60.175
40
0.5
50
90
51
180
0
LINE
8
0
10
174.475
20
-73.675
11
187.475
21
-73.675
0
LINE
8
0
10
187.475
20
-59.675
11
174.475
21
-59.675
0
LINE
8
0
10
187.975
20
-73.175
11
187.975
21
-60.175
0
LINE
8
0
10
173.975
20
-60.175
11
173.975
21
-73.175
0
ARC
8
0
10
193.525
20
-73.175
40
0.5
50
180
51
270
0
ARC
8
0
10
206.525
20
-73.175
40
0.5
50
270
51
0
0
ARC
8
0
10
206.525
20
-60.175
40
0.5
50
0
51
90
0
ARC
8
0
10
193.525
20
-60.175
40
0.5
50
90
51
180
0
LINE
8
0
10
193.525
20
-73.675
11
206.525
21
-73.675
0
LINE
8
0
10
206.525
20
-59.675
11
193.525
21
-59.675
0
LINE
8
0
10
207.025
20
-73.175
11
207.025
21
-60.175
0
LINE
8
0
10
193.025
20
-60.175
11
193.025
21
-73.175
0
ARC
8
0
10
212.575
20
-73.175
40
0.5
50
180
51
270
0
ARC
8
0
10
225.575
20
-73.175
40
0.5
50
270
51
0
0
ARC
8
0
10
225.575
20
-60.175
40
0.5
50
0
51
90
0
ARC
8
0
10
212.575
20
-60.175
40
0.5
50
90
51
180
0
LINE
8
0
10
212.575
20
-73.675
11
225.575
21
-73.675
0
LINE
8
0
10
225.575
20
-59.675
11
212.575
21
-59.675
0
LINE
8
0
10
226.075
20
-73.175
11
226.075
21
-60.175
0
LINE
8
0
10
212.075
20
-60.175
11
212.075
21
-73.175
0
ENDSEC
0
EOF